<?xml version="1.0" encoding="UTF-8"?>
<!DOCTYPE svg PUBLIC "-//W3C//DTD SVG 1.1//EN" "http://www.w3.org/Graphics/SVG/1.1/DTD/svg11.dtd">
<!-- Creator: CorelDRAW X6 -->
<svg xmlns="http://www.w3.org/2000/svg" xml:space="preserve" width="1.69444in" height="1.93055in" version="1.1" style="shape-rendering:geometricPrecision; text-rendering:geometricPrecision; image-rendering:optimizeQuality; fill-rule:evenodd; clip-rule:evenodd"
viewBox="0 0 1694 1931"
 xmlns:xlink="http://www.w3.org/1999/xlink">
 <defs>
  <style type="text/css">
   <![CDATA[
    .fil0 {fill:#E53345;fill-rule:nonzero}
   ]]>
  </style>
 </defs>
 <g id="Layer_x0020_1">
  <metadata id="CorelCorpID_0Corel-Layer"/>
  <path class="fil0" d="M1541 1487c87,0 158,-233 160,-522l0 -29c-2,-290 -73,-522 -160,-522 -89,0 -161,240 -161,537 0,297 72,537 161,537l0 0zm-544 -1488l0 0c120,85 136,342 142,451 6,117 -2,238 -29,356 -21,92 -48,194 -108,268 70,274 159,538 194,818 82,-23 160,-55 232,-96 -144,-125 -247,-457 -247,-847 0,-374 94,-694 229,-830 -124,-67 -263,-109 -412,-121zm-124 1204c-38,0 -81,15 -118,15 5,243 15,466 33,704 42,5 84,8 127,8l2 0c37,0 73,-2 109,-6 -44,-243 -96,-479 -153,-721zm105 -712c2,-98 -18,-270 -151,-267 -21,1 -31,2 -52,3 -14,220 -20,440 -22,661 16,0 24,0 39,0 183,-3 183,-271 185,-397zm-308 -467c-31,7 -62,16 -92,26 -1,12 -3,26 -5,42 -5,45 -12,104 -18,151 -11,87 -11,87 -14,87l-1 0 -1 -1c-52,-45 -110,-71 -161,-71 -14,0 -26,2 -37,6 -93,33 -154,131 -203,209l-2 3c-88,141 -136,320 -136,506 0,182 49,359 138,499 57,89 125,187 220,220 2,1 4,1 5,2 1,-1 3,-2 5,-3 -43,-179 -51,-363 -59,-542 -1,-28 -2,-55 -4,-83l0 -4 4 0c58,2 96,2 153,4l20 0 0 4c11,320 37,579 79,789 20,7 40,14 61,20 -33,-710 -50,-1248 49,-1864z"/>
 </g>
</svg>
